<?xml version="1.0" encoding="UTF-8"?>
<svg xmlns="http://www.w3.org/2000/svg" xmlns:xlink="http://www.w3.org/1999/xlink" width="2125px" height="2434px" viewBox="0 0 546 625" version="1.1">
<g id="surface1">
<path style=" stroke:none;fill-rule:nonzero;fill:rgb(10.588235%,45.098039%,72.941176%);fill-opacity:1;" d="M 45.71875 559.527344 L 0 1.046875 L 546 2.171875 L 497.65625 559.527344 L 275.0625 623.953125 Z M 45.71875 559.527344 "/>
<path style=" stroke:none;fill-rule:nonzero;fill:rgb(10.980392%,53.333333%,78.039216%);fill-opacity:1;" d="M 275.0625 570.015625 L 275.0625 54.238281 L 499.90625 54.984375 L 459.8125 516.453125 Z M 275.0625 570.015625 "/>
<path style=" stroke:none;fill-rule:nonzero;fill:rgb(100%,100%,100%);fill-opacity:1;" d="M 444.070312 120.164062 L 98.183594 120.164062 L 107.554688 187.582031 L 271.6875 187.582031 L 110.175781 256.878906 L 119.542969 322.050781 L 357.507812 322.050781 L 348.886719 413.066406 L 268.316406 428.800781 L 195.242188 410.074219 L 189.621094 358.382812 L 122.542969 358.382812 L 131.53125 465.886719 L 275.433594 505.964844 L 413.34375 462.140625 L 430.957031 252.003906 L 285.175781 252.003906 L 444.066406 186.085938 Z M 444.070312 120.164062 "/>
</g>
</svg>
