<svg xmlns="http://www.w3.org/2000/svg" xmlns:xlink="http://www.w3.org/1999/xlink" xmlns:lucid="lucid" width="1881.5" height="963"><g transform="translate(-200 -398.5)" lucid:page-tab-id="0_0"><path d="M0 0h2500v1500H0z" fill="#f2f3f5"/><path d="M520 406a6 6 0 0 1 6-6h1548a6 6 0 0 1 6 6v948a6 6 0 0 1-6 6H526a6 6 0 0 1-6-6z" stroke="#242f3e" stroke-width="3" fill="#fff" fill-opacity="0"/><path d="M520 400h56v56h-56v-56z" stroke="#fff" stroke-opacity="0" fill="#242f3e"/><path d="M538.22 425.87c-.04.48.04.87.17 1.34.1.4.28.7.48 1.07.04.1.08.22.08.34 0 .2-.12.36-.28.46l-.95.62c-.12.08-.25.13-.37.13-.16 0-.33-.06-.45-.2-.2-.22-.36-.43-.52-.7-.17-.25-.3-.53-.46-.86-1.1 1.37-2.62 2.1-4.4 2.06-1.14.06-2.12-.3-2.95-1.08-.78-.8-1.15-1.76-1.1-2.85-.05-1.23.4-2.28 1.35-3.08 1.07-.86 2.3-1.23 3.65-1.16.58 0 1.03.02 1.6.1.58.1 1.1.2 1.73.33v-1.1c.08-.88-.16-1.67-.7-2.37-.74-.56-1.56-.8-2.46-.7-.53 0-1.03.07-1.6.2-.58.13-1.03.3-1.6.5l-.5.2h-.24c-.2 0-.33-.16-.33-.45v-.75c0-.18.04-.33.12-.5.12-.16.24-.26.4-.33.66-.3 1.2-.5 1.9-.67.77-.2 1.47-.3 2.3-.28 1.47-.13 2.78.26 3.9 1.2.94 1.05 1.35 2.28 1.22 3.67zm-6.07 2.28c.57 0 1.06-.1 1.6-.28.57-.2 1.02-.5 1.43-.96.25-.27.42-.56.5-.93.12-.45.16-.84.16-1.3V424c-.53-.1-.94-.17-1.44-.2H533c-.8-.08-1.55.12-2.2.58-.54.45-.8 1.04-.75 1.73-.04.6.13 1.16.54 1.6.44.38.97.52 1.55.45zm12 1.6c-.22 0-.42-.03-.6-.15-.15-.17-.23-.36-.32-.6l-3.5-11.5-.1-.62c0-.24.1-.37.36-.37h1.47c.2 0 .37.04.57.15.17.18.25.37.3.6l2.5 9.96 2.38-9.93c0-.24.08-.44.28-.6.17-.12.37-.16.58-.15h1.2c.24 0 .4.03.6.15.17.18.25.36.3.6l2.33 9.94 2.56-10c.04-.2.16-.4.33-.58.15-.1.36-.17.56-.14h1.4c.16 0 .33.12.37.3v.31s0 .2-.12.35l-3.6 11.53c-.05.22-.13.42-.3.6-.2.1-.37.14-.57.13h-1.27c-.25.04-.46-.02-.62-.15-.16-.17-.25-.36-.3-.6l-2.3-9.6-2.28 9.6c-.05.24-.13.44-.3.6-.2.13-.4.2-.6.16zm19.2.38c-.82 0-1.5-.07-2.3-.25-.65-.13-1.14-.3-1.72-.6-.2-.1-.37-.23-.45-.4-.08-.16-.12-.3-.12-.45v-.75c0-.3.12-.46.32-.46h.3l.36.15c.58.24 1.03.4 1.6.5.62.15 1.15.2 1.8.2.8.06 1.5-.1 2.2-.48.48-.32.77-.83.73-1.42.04-.4-.13-.76-.38-1.04-.46-.4-.95-.65-1.52-.8l-2.18-.67c-.95-.26-1.73-.74-2.38-1.5-.5-.66-.74-1.36-.74-2.2 0-.58.12-1.07.4-1.6.3-.5.63-.88 1.08-1.2.5-.4.98-.62 1.6-.8.66-.17 1.2-.25 1.9-.24.32-.03.6-.03.97 0l1 .16.8.22.67.26c.16.1.28.22.45.38.08.15.12.3.12.5v.7c0 .3-.12.47-.37.47-.2-.03-.37-.08-.57-.18-.95-.42-1.8-.6-2.88-.58-.7-.04-1.3.08-1.97.4-.5.3-.74.8-.7 1.36 0 .4.13.76.46 1.05.5.4.98.65 1.6.82l2.1.67c.94.24 1.68.7 2.3 1.44.48.64.7 1.3.7 2.1 0 .63-.13 1.17-.38 1.73-.3.55-.62.95-1.1 1.32-.5.4-1 .66-1.6.84-.75.23-1.4.33-2.15.34zM566.1 437.5c-5.6 3.8-11.36 5.56-18.15 5.54-8.54.05-15.82-2.74-22.16-8.45-.5-.42 0-1 .48-.68 7.07 4.05 14.02 5.9 22.2 5.9 6.1-.04 11.3-1.1 16.93-3.47.83-.35 1.52.54.7 1.13z" stroke="#fff" stroke-opacity="0" fill="#fff"/><path d="M568.16 435.2c-.64-.8-4.16-.38-5.75-.2-.46 0-.53-.36-.1-.67 2.8-1.97 7.42-1.4 8-.73.6.67-.14 5.28-2.78 7.48-.4.35-.78.15-.6-.28.54-1.52 1.86-4.83 1.24-5.6z" stroke="#fff" stroke-opacity="0" fill="#fff"/><use xlink:href="#a" transform="matrix(1,0,0,1,591,420) translate(0 25.1875)"/><use xlink:href="#b" transform="matrix(1,0,0,1,591,420) translate(107.5546875 25.1875)"/><path d="M1240 650a6 6 0 0 1 6-6h708a6 6 0 0 1 6 6v340a6 6 0 0 1-6 6h-708a6 6 0 0 1-6-6z" fill="#fff" fill-opacity="0"/><path d="M1263.7 644h11.8m11.8 0h11.8m11.8 0h11.8m11.8 0h11.8m11.8 0h11.8m11.8 0h11.8m11.8 0h11.8m11.8 0h11.8m11.8 0h11.8m11.8 0h11.8m11.8 0h11.8m11.8 0h11.8m11.8 0h11.8m11.8 0h11.8m11.8 0h11.8m11.8 0h11.8m11.8 0h11.8m11.8 0h11.8m11.8 0h11.8m11.8 0h11.8m11.8 0h11.8m11.8 0h11.8m11.8 0h11.8m11.8 0h11.8m11.8 0h11.8m11.8 0h11.8m11.8 0h11.8m11.8 0h11.8m11.8 0h11.8m11.8 0h5.9a6 6 0 0 1 6 6v6.07m0 12.14v12.16m0 12.14v12.14m0 12.15v12.13m0 12.14v12.14m0 12.16v12.14m0 12.14v12.15m0 12.13v12.14m0 12.14v12.16m0 12.14v12.14m0 12.15v12.13m0 12.14v12.14m0 12.16v12.14m0 12.14v12.15m0 12.13V990a6 6 0 0 1-6 6h-5.9m-11.8 0h-11.8m-11.8 0h-11.8m-11.8 0h-11.8m-11.8 0h-11.8m-11.8 0h-11.8m-11.8 0h-11.8m-11.8 0h-11.8m-11.8 0h-11.8m-11.8 0h-11.8m-11.8 0h-11.8m-11.8 0h-11.8m-11.8 0h-11.8m-11.8 0h-11.8m-11.8 0h-11.8m-11.8 0h-11.8m-11.8 0h-11.8m-11.8 0h-11.8m-11.8 0h-11.8m-11.8 0h-11.8m-11.8 0h-11.8m-11.8 0h-11.8m-11.8 0h-11.8m-11.8 0h-11.8m-11.8 0h-11.8m-11.8 0h-11.8m-11.8 0h-11.8m-11.8 0h-11.8m-11.8 0h-11.8m-11.8 0h-11.8m-11.8 0h-5.9a6 6 0 0 1-6-6v-6.07m0-12.14v-12.16m0-12.14v-12.14m0-12.15v-12.13m0-12.14V886.8m0-12.16V862.5m0-12.14V838.2m0-12.13v-12.14m0-12.14v-12.16m0-12.14v-12.14m0-12.15v-12.13m0-12.14V716.8m0-12.16V692.5m0-12.14V668.2m0-12.13V650a6 6 0 0 1 6-6h5.9" stroke="#00a4a6" stroke-width="3" fill="none"/><path d="M1240 644h56v56h-56v-56z" stroke="#fff" stroke-opacity="0" fill="#00a4a6"/><path d="M1283.84 673.36l-5.96-7.36 5.96-7.4h-26.17v-2.08c.98-.32 1.62-1.16 1.62-2.2-.1-1.15-1.03-2.02-2.17-2.14-1.3-.08-2.44.87-2.53 2.15 0 1.03.63 1.87 1.58 2.2v33.88h-4.02v1.6h9.44v-1.6h-3.93v-17.04zm-26.96-19.75c.4-.03.76.33.76.73 0 .44-.32.75-.73.75-.4.04-.75-.3-.75-.7v-.05c0-.4.32-.72.73-.72zm23.6 6.62l-4.65 5.78 4.65 5.73h-22.8v-11.5z" stroke="#fff" stroke-opacity="0" fill="#fff"/><use xlink:href="#c" transform="matrix(1,0,0,1,1311,664) translate(0 21.52777777777778)"/><use xlink:href="#d" transform="matrix(1,0,0,1,1311,664) translate(37.04427083333333 21.52777777777778)"/><path d="M1313.57 710.9a6 6 0 0 1 6-6h589.83a6 6 0 0 1 6 6v218.2a6 6 0 0 1-6 6h-589.83a6 6 0 0 1-6-6z" stroke="#ed7100" stroke-width="3" fill="#fff" fill-opacity="0"/><path d="M1313.57 704.9h56v56h-56v-56z" stroke="#fff" stroke-opacity="0" fill="#ed7100"/><path d="M1360.77 723.65v-1.58H1357v-4.6h-4.8v-3.77h-1.6v3.76h-3.42v-3.76h-1.62v3.76h-3.38v-3.76h-1.6v3.76h-3.42v-3.76h-1.62v3.76h-3.42v-3.76h-1.57v3.76h-4.42v4.57h-3.76v1.62h3.76v3.4h-3.76v1.63h3.76v3.4h-3.76v1.63h3.76v3.42h-3.76v1.62h3.76v3.4h-3.76v1.63h3.76v4.57h4.42v3.76h1.57v-3.76h3.42v3.76h1.62v-3.76h3.4v3.76h1.63l-.02-3.76h3.38v3.76h1.62v-3.76h3.4l.02 3.76h1.6v-3.76h4.8v-4.57h3.77v-1.62H1357v-3.4h3.77v-1.63H1357v-3.4h3.77v-1.63H1357v-3.42h3.77v-1.62H1357v-3.4zm-5.38 23.07h-27.65v-27.64h27.64z" stroke="#fff" stroke-opacity="0" fill="#fff"/><use xlink:href="#e" transform="matrix(1,0,0,1,1384.5708605938557,724.9004559478785) translate(0 21.52777777777778)"/><path d="M880 1140h120v120H880v-120z" stroke="#fff" stroke-opacity="0" fill="#693cc5"/><path d="M953.82 1237.07l-2.85-1.5c1.6-3.02 2.7-5.73 3.64-9.04l3.1.9c-1.03 3.54-2.17 6.4-3.88 9.64zm2.98-29.3c-.57-9.4-3.23-17.23-8.43-25.06l2.66-1.72c5.55 8.28 8.37 16.64 8.97 26.58zm-21.1-38.62c-2.45-1.8-4.67-3.16-7.4-4.5l1.46-2.87c2.92 1.43 5.26 2.86 7.86 4.82zM948.8 1211.84c-5.3-5.27-10.82-8.73-17.87-11.2l1-3.04c7.5 2.63 13.38 6.3 19.03 11.92zM962 1230.94c-.6-1.6-1.28-3.07-2.02-4.56l2.87-1.42c.83 1.65 1.46 3.08 2.13 4.8z" stroke="#fff" stroke-opacity="0" fill="#fff"/><path d="M952.9 1237.84l-1-3.02c4.02-1.37 7.24-3.1 10.6-5.72l1.96 2.53c-3.66 2.85-7.15 4.73-11.55 6.2zM902.04 1199.2l-.73-3.1c3.75-.92 7-1.35 10.85-1.43l.07 3.2c-3.6.08-6.66.47-10.18 1.33zM928.3 1189.02l-2.7-1.75c2.47-4 5.06-7.1 8.6-10.23l2.1 2.42c-3.3 2.92-5.7 5.8-8 9.56zM952.08 1170.05l-1.1-3c2.55-.96 4.76-1.6 7.42-2.12l.6 3.2c-2.5.47-4.55 1.04-6.92 1.92zM920.4 1234.4c-2.75-6.38-4-12.25-4.1-19.2.05-2.67.34-4.95.98-7.54.1-.57.24-1.14.35-1.74l3.2.63c-.1.6-.24 1.16-.35 1.76-.6 2.38-.87 4.46-.93 6.9.08 6.53 1.24 12.05 3.8 18.06z" stroke="#fff" stroke-opacity="0" fill="#fff"/><path d="M940 1240c-22.08 0-40-17.94-40-39.97 0-.88 0-1.6.08-2.5 1.04-17.05 12.08-31 28.48-35.87 10.8-3.2 21.2-2.1 30.96 3.44 19.28 10.82 26.16 35.17 15.36 54.47-2.72 4.9-5.92 8.65-10.4 12.1-7.36 5.6-15.2 8.33-24.48 8.33zm0-76.82c-3.76 0-6.96.48-10.48 1.6-15.12 4.57-25.28 17.3-26.24 33 0 .8-.08 1.53-.08 2.25 0 20.26 16.48 36.77 36.8 36.77 4.24 0 7.84-.57 11.84-2 4.08-1.37 7.28-3.05 10.64-5.7 9.36-7.2 14.32-17.3 14.32-29.07 0-20.35-16.48-36.85-36.8-36.85z" stroke="#fff" stroke-opacity="0" fill="#fff"/><path d="M943.9 1181.5c-3.92 0-7.1-3.2-7.1-7.1 0-3.9 3.18-7.1 7.1-7.1 3.9 0 7.08 3.2 7.08 7.1 0 3.93-3.16 7.1-7.08 7.1zm0-10.97c-2.15 0-3.9 1.74-3.9 3.88 0 2.17 1.75 3.9 3.9 3.9 2.13 0 3.87-1.73 3.87-3.9 0-2.13-1.74-3.87-3.88-3.87zM922.06 1203.8c-3.9 0-7.08-3.17-7.08-7.08 0-3.9 3.17-7.1 7.08-7.1 3.92 0 7.1 3.2 7.1 7.1-.02 3.9-3.18 7.07-7.1 7.1zm0-10.96c-2.14 0-3.88 1.74-3.88 3.88 0 2.14 1.74 3.88 3.88 3.88 2.15 0 3.9-1.74 3.9-3.88v-.03c0-2.16-1.75-3.9-3.9-3.9zM957.25 1224.32c-3.92 0-7.1-3.16-7.1-7.07-.02-3.92 3.15-7.1 7.07-7.1 3.9-.02 7.1 3.15 7.1 7.07v.03c0 3.9-3.16 7.07-7.07 7.07zm0-10.96h-.02c-2.14 0-3.88 1.75-3.88 3.9 0 2.14 1.74 3.87 3.88 3.87 2.14 0 3.9-1.73 3.9-3.88 0-2.14-1.74-3.9-3.88-3.9z" stroke="#fff" stroke-opacity="0" fill="#fff"/><use xlink:href="#f" transform="matrix(1,0,0,1,850,1269) translate(32.06271701388889 21.52777777777778)"/><path d="M1269.33 472.1h87.9V560h-87.9v-87.9z" stroke="#000" stroke-opacity="0" fill="#e7157b"/><path d="M1328.34 544.6c-2.37 0-4.27-1.9-4.27-4.3 0-2.35 1.9-4.25 4.27-4.25 2.37 0 4.27 1.9 4.27 4.24 0 2.4-1.9 4.3-4.26 4.3zm-9.38-18.65h-11.33l-5.7-9.9 5.7-9.9h11.33l5.7 9.9-5.7 9.9zm-19.22-29.9c-2.38 0-4.27-1.9-4.27-4.25 0-2.4 1.9-4.3 4.27-4.3 2.3 0 4.27 1.9 4.27 4.3 0 2.34-1.95 4.25-4.26 4.25zm28.6 37.78c-.83 0-1.6.18-2.3.43l-4.64-7.88-.24.13 5.7-9.9c.17-.37.17-.74 0-1.1l-6.3-10.96c-.23-.37-.6-.56-.94-.56h-11.5l.04-.06-4.27-7.2c1.42-1.23 2.3-2.95 2.3-4.92 0-3.63-2.9-6.52-6.46-6.52s-6.47 2.9-6.47 6.52c0 3.57 2.9 6.46 6.47 6.46.77 0 1.54-.18 2.3-.43l3.93 6.77-6.23 10.9c-.24.36-.24.73 0 1.1l6.3 10.95c.17.37.52.56.94.56H1319.85l4.28 7.27c-1.37 1.23-2.26 2.95-2.26 4.92 0 3.62 2.9 6.5 6.47 6.5 3.56 0 6.47-2.88 6.47-6.5 0-3.58-2.9-6.47-6.46-6.47zm6.53-26.46c-2.38 0-4.28-1.9-4.28-4.3 0-2.35 1.9-4.32 4.27-4.32 2.3 0 4.27 1.97 4.27 4.3 0 2.4-1.96 4.32-4.27 4.32zm8 8.12l-4.15-7.2c1.55-1.24 2.56-3.1 2.56-5.24 0-3.57-2.85-6.46-6.4-6.46-.96 0-1.8.18-2.57.5l-3.37-5.85c-.23-.37-.6-.56-.95-.56h-13.6v2.15h12.95l3.15 5.47c-1.3 1.17-2.08 2.9-2.08 4.74 0 3.57 2.9 6.52 6.47 6.52.65 0 1.3-.12 1.9-.3l3.85 6.76-5.46 9.48 1.9 1.1 5.82-10.02c.18-.37.18-.74 0-1.1zm-50.2 17.28c-2.3 0-4.27-1.9-4.27-4.3 0-2.34 1.96-4.25 4.28-4.25 2.37 0 4.27 1.9 4.27 4.25 0 2.4-1.9 4.3-4.27 4.3zm3.63 1.1c1.72-1.16 2.85-3.13 2.85-5.4 0-3.57-2.9-6.47-6.47-6.47-1 0-1.96.26-2.85.7l-3.8-6.66 6.3-11-1.9-1.12-6.65 11.57c-.18.36-.18.73 0 1.1l4.27 7.38c-1.13 1.17-1.78 2.77-1.78 4.5 0 3.63 2.85 6.52 6.4 6.52.54 0 1.07-.06 1.6-.2l3.45 6.05c.24.36.6.55.95.55h13.6v-2.15h-12.95l-3.02-5.36z" stroke="#000" stroke-opacity="0" fill="#fff"/><use xlink:href="#g" transform="matrix(1,0,0,1,1239.3281447855406,569) translate(10.203342013888893 21.52777777777778)"/><path d="M1614.5 558.8c-23.6 0-42.76-19.17-42.76-42.75 0-23.6 19.16-42.75 42.75-42.75 23.57 0 42.74 19.16 42.74 42.74 0 23.6-19.17 42.75-42.75 42.75zm0-89.73c-25.94 0-47 21.04-47 46.97 0 25.94 21.06 46.98 47 46.98 25.92 0 46.96-21.04 46.96-46.98 0-25.93-21.04-46.97-46.97-46.97zM1600 540.1h-11.46l13.62-28.38 5.73 11.75-7.88 16.63zm4.04-34.3c-.38-.75-1.13-1.22-1.97-1.22-.77 0-1.52.47-1.9 1.22l-16.9 35.52c-.3.66-.3 1.4.1 2.07.36.55 1.12.93 1.77.93h16.26c.75 0 1.5-.47 1.88-1.23l8.84-18.7c.28-.56.28-1.2 0-1.87l-8.08-16.73zm36.36 34.3h-11.65l-21.23-45.48c-.3-.75-1.04-1.22-1.88-1.22h-7.7v-8.83h15.4l21.05 45.47c.38.76 1.13 1.23 1.98 1.23h4.04v8.83zm2.07-13.16h-4.8l-21.05-45.38c-.38-.84-1.13-1.3-1.88-1.3h-18.98c-1.14 0-2.08.93-2.08 2.15l-.1 13.07c0 .56.3 1.13.67 1.5.36.47.93.66 1.5.66h8.45l21.23 45.47c.28.76 1.03 1.23 1.88 1.23h15.13c1.2 0 2.15-.94 2.15-2.17V529.1c0-1.12-.94-2.16-2.16-2.16z" stroke="#000" stroke-opacity="0" fill="#ed7100"/><path d="M1811.4 774.27c-1.14.1-2.05.34-2.96.8L1769 794.5c-2.16 1.02-3.64 2.84-4.1 5.23l-9.77 43.76c-.46 2.04-.12 4.08 1.02 5.9.1.23.23.34.45.57l27.3 35c1.46 1.94 3.5 2.97 5.9 2.97h43.88c2.38 0 4.43-1.03 5.9-2.96l27.3-35c1.47-1.94 2.04-4.22 1.47-6.6l-9.78-43.65c-.45-2.4-1.93-4.2-4.1-5.23l-39.44-19.44c-1.25-.57-2.38-.9-3.63-.8z" stroke="#000" stroke-opacity="0" stroke-width="0" fill="#326ce5"/><path d="M1811.38 771.1c-1.2.12-2.16.36-3.12.84l-41.64 20.52c-2.28 1.08-3.84 3-4.32 5.52l-10.32 46.2c-.48 2.16-.12 4.32 1.08 6.24.12.24.24.36.48.6l28.8 36.96c1.56 2.04 3.72 3.12 6.24 3.12h46.32c2.52 0 4.68-1.08 6.24-3.12l28.8-36.96c1.56-2.04 2.16-4.44 1.56-6.84l-10.32-46.2c-.48-2.52-2.04-4.44-4.32-5.52l-41.64-20.52c-1.32-.6-2.52-.96-3.84-.84zm0 3.12c1.32 0 2.4.24 3.6.84l39.6 19.44c2.04 1.08 3.48 2.88 4.08 5.28l9.72 43.68c.48 2.4 0 4.56-1.44 6.48l-27.36 35.04c-1.44 1.92-3.48 3-5.88 3h-43.92c-2.4 0-4.44-1.08-5.88-3l-27.36-35.04c-.12-.12-.24-.36-.36-.6-1.2-1.8-1.56-3.72-1.08-5.88l9.72-43.68c.6-2.4 1.92-4.2 4.08-5.28l39.6-19.44c.96-.48 1.8-.72 2.88-.84z" stroke="#000" stroke-opacity="0" stroke-width="0" fill="#fff"/><path d="M1818.95 795.52v14.7h14.65v-14.7zm0 21.13v3.74c1.7-.4 3.5-.64 5.37-.64 3.3 0 6.4.7 9.28 2v-5.1zm-41.82.23v14.7h14.66v-14.7zm20.94 0v14.7h6.17c2.03-3.55 4.97-6.54 8.48-8.6v-6.1zm-21.05 21.37v14.7h14.65v-14.7zm20.93 0v14.7h4.76c-1.12-2.8-1.8-5.9-1.8-9.13 0-1.9.28-3.8.68-5.57z" stroke="#000" stroke-opacity="0" stroke-width="2.67" fill="#fff"/><path d="M1825.17 822.8c-11.7 0-21.28 9.88-21.28 21.94 0 12.07 9.57 21.94 21.27 21.94s21.3-9.87 21.3-21.94c0-12.06-9.6-21.94-21.3-21.94zm8.94 31.16l-11.05-7.02v-13.17h3.2v11.4l9.57 5.94z" stroke="#000" stroke-opacity="0" stroke-width="1.21" fill="#fff"/><use xlink:href="#h" transform="matrix(1,0,0,1,1721.7375272605223,900.0995440521214) translate(44.85026041666667 21.52777777777778)"/><path d="M1417 771.1h.24c1.8.72 3.24 1.44 4.8 2.28 17.76 8.88 35.4 17.88 53.16 26.76 1.44.72 2.16 1.92 2.04 3.36-.12 18.84 0 37.68 0 56.4-.24.96-.84 1.68-1.8 2.16-18.84 9.48-37.68 19.08-56.52 28.56-.96.6-2.16.6-3.24.12l-56.52-28.44c-1.2-.6-1.92-1.68-1.92-2.88v-56.4c-.12-1.2.6-2.4 1.92-2.88 17.64-8.88 35.4-17.88 53.04-26.76 1.56-.72 3.12-1.56 4.8-2.28" stroke="#000" stroke-opacity="0" stroke-width="17.86" fill="#019639"/><path d="M1381.84 807.7v46.56c0 1.8.6 3.36 2.04 4.68 2.76 2.28 6.96 2.64 10.08.84 2.16-1.32 3.36-3.24 3.36-5.52v-33.72c11.76 12.24 23.4 24.48 35.16 36.72 3.48 3 7.92 4.2 12.72 3.36 3.36-.6 5.76-2.88 6.12-5.88v-47.52c-.36-3.24-3.24-5.88-6.96-6.12-4.32-.36-8.04 2.4-8.4 6.12 0 11.4-.12 22.8 0 34.2-11.52-11.76-22.8-23.76-34.32-35.64-3.12-3.6-7.8-5.28-12.96-4.56-3.84.36-6.72 3.12-6.84 6.48z" stroke="#000" stroke-opacity="0" stroke-width="17.86" fill="#fff"/><path d="M1544.95 771.1h139.08c3.1 0 4.6 1.68 4.6 5.16v109.68c0 3.48-1.5 5.16-4.6 5.16h-139.08c-3.1 0-4.6-1.68-4.6-5.16V776.26c0-3.48 1.5-5.16 4.6-5.16z" stroke="#000" stroke-opacity="0" fill-opacity="0"/><path d="M1659.12 797.38l.6.48 4.14 4.68 2.52 4.08 1.48 3.96.75 3.96 3.12-.48 5.63.12 4.45.84 2.52.96 1.2.84 3.1 2.16-.6 1.2-.58 1.56-.45 1.32-.3.6-.45.84-1.48 2.76-1.63 2.16-1.93 1.8-1.92 1.44-2.37 1.32-2.8.96-3.42.72-5.2.12-.58 1.8-1.48 3.84-1.63 3.6-1.8 3.48-1.77 3.24-1.78 3.12-1.78 2.88-2.08 2.76-1.93 2.52-2.08 2.52-2.23 2.4-2.23 2.16-2.22 2.16-2.38 2.04-2.37 1.92-2.67 1.8-2.52 1.68-2.8 1.56-2.83 1.44-2.97 1.44-3.1 1.32-3.12 1.2-3.4.96-3.57.96-3.72.84-3.85.6-4.16.48-4.44.36-4.6.12-4-.12-5.04-.6-4.3-.72-3.87-1.08-3.4-1.32-3.12-1.44-2.8-1.56-2.68-1.8-2.37-2.04-2.37-2.16-2.23-2.4-2.07-2.64-.3-.36-1.93-3-1.78-3.24-1.63-3.48-1.48-3.84-1.34-4.2-1.03-4.44-.75-4.8-.45-4.92-.15-4.44.15-3.48.3-2.16.3-1.32H1642.2l6.67-1.08 4-1.8-1.94-4.44-1.04-5.4v-3.48l.6-5.76 1.48-5.16 1.63-3.84 2.37-3.72zm-19.57 28.8h-15.28v-16.2h15.28zm-18.1 0h-15.27v-16.2h15.28zm-18.08 0h-15.27v-16.2h15.27zm-18.1 0h-15.26v-16.2h15.28zm-18.08-16.2v16.2h-15.28v-16.2h15.27zm18.08-3.24H1570v-16.2h15.28zm18.1 0h-15.28v-16.2h15.27zm18.08 0h-15.28v-16.2h15.28zm0-19.44h-15.28v-16.2h15.28z" stroke="#000" stroke-opacity="0" fill="#2396ed"/><path d="M1815.38 1190.03c-2.83 3.7-8.6 1.68-8.72-2.9l-.98-67.28h45.22c8.18 0 12.75 9.5 7.63 15.9l-43.15 54.28z" stroke="#000" stroke-opacity="0" fill="url(#i)"/><path d="M1815.38 1190.03c-2.83 3.7-8.6 1.68-8.72-2.9l-.98-67.28h45.22c8.18 0 12.75 9.5 7.63 15.9l-43.15 54.28z" stroke="#000" stroke-opacity="0" fill="url(#j)"/><path d="M1797.07 1081.9c2.84-3.7 8.6-1.68 8.72 2.9l.42 67.3h-44.67c-8.18 0-12.75-9.53-7.63-15.9l43.15-54.3z" stroke="#000" stroke-opacity="0" fill="#3ecf8e"/><path d="M600 760h120v120H600V760z" stroke="#000" stroke-opacity="0" fill="#8c4fff"/><path d="M673.02 821c-1.1-1-2.6-1.5-4.45-1.5H667.98l5.88-6.22V811h-11.68v2.36h8.5l-6.06 6.56v1.93c.92-.17 1.85-.17 2.77-.17 2.93 0 4.36 1.18 4.36 3.44 0 1.26-.34 2.2-1.18 2.78-.75.67-1.93 1-3.36 1-1.42 0-3.27-.33-5.3-1v2.26c1.78.76 3.54 1.18 5.3 1.18 2.27 0 4.12-.6 5.46-1.68 1.35-1.18 2.02-2.6 2.02-4.54 0-1.68-.6-3.1-1.68-4.1zm-16.63-.5c-1.2-1.1-2.78-1.6-4.88-1.6-.84 0-1.77.1-2.86.26l.42-5.8h8.06V811h-10.5l-.58 8.58v1.85c1.84-.17 3.27-.25 4.45-.25 1.7 0 2.86.33 3.62.92.67.6 1.1 1.6 1.1 2.94 0 1.26-.43 2.18-1.18 2.86-.76.67-1.94 1-3.36 1-1.52 0-3.36-.33-5.46-1v2.26c1.68.76 3.52 1.18 5.46 1.18 2.26 0 4.03-.6 5.37-1.76 1.35-1.18 2.1-2.7 2.1-4.54 0-1.93-.6-3.44-1.76-4.54zm21.58 21.1c-7.3 1.25-13.7 4.27-17.98 6.62-4.28-2.35-10.67-5.37-17.98-6.63-2-.43-12.18-2.53-12.18-8.4 0-2.78.93-4.55 2.86-7.82 2.18-3.87 5.04-8.74 5.04-15.63 0-4.95-1.34-9.74-3.86-14.2l.84-1.1c3.86 1.86 7.8 2.87 11.84 2.87 4.87 0 9.4-1.34 13.44-3.86 4.03 2.52 8.57 3.86 13.44 3.86 4.03 0 7.98-1 11.84-2.86.26.34.6.76.84 1.1-2.52 4.45-3.86 9.24-3.86 14.2 0 6.88 2.86 11.75 5.04 15.62 1.93 3.27 2.86 5.04 2.86 7.8 0 5.9-10.17 8-12.18 8.4zm7.3-31.85c0-4.8 1.35-9.32 3.95-13.52.34-.5.34-1.26-.08-1.77-.76-.92-1.6-1.84-2.35-2.85-.42-.58-1.26-.75-1.85-.4-3.7 2.1-7.56 3.1-11.5 3.1-4.7 0-8.83-1.26-12.6-3.87-.5-.33-1.2-.33-1.7 0-3.77 2.6-7.9 3.87-12.6 3.87-3.94 0-7.8-1-11.5-3.1-.6-.35-1.43-.18-1.85.4-.75 1.02-1.6 1.94-2.35 2.86-.42.5-.42 1.26-.08 1.77 2.6 4.2 3.95 8.73 3.95 13.52 0 6.13-2.6 10.6-4.62 14.1-2.02 3.54-3.28 5.8-3.28 9.34 0 8.05 11.26 10.74 14.7 11.33 7.3 1.34 13.7 4.37 17.72 6.72.26.17.5.25.76.25.25 0 .5-.08.76-.25 4.03-2.35 10.4-5.38 17.72-6.72 3.44-.6 14.7-3.28 14.7-11.34 0-3.54-1.26-5.8-3.28-9.34-2-3.52-4.62-7.98-4.62-14.1zm-5.8 40.5c-9.15 1.67-16.88 6.63-19.48 8.4-2.6-1.77-10.33-6.73-19.5-8.4-18.13-3.3-19.48-13.87-19.48-17.06 0-5.3 2.02-8.83 4.04-12.28 1.84-3.27 3.86-6.63 3.86-11.17 0-7.22-4.2-12.35-6.22-14.45 2.1-2.6 7.65-9.32 10.34-12.76 4.03 3.86 8.82 5.96 13.52 5.96 5.2 0 9.5-2.1 13.44-6.64 3.95 4.54 8.23 6.64 13.44 6.64 4.7 0 9.5-2.1 13.52-5.96 2.7 3.44 8.24 10.16 10.34 12.76-2.02 2.1-6.22 7.23-6.22 14.45 0 4.54 2.02 7.9 3.86 11.17 2.02 3.45 4.04 6.98 4.04 12.27 0 3.18-1.35 13.76-19.5 17.04zm18.07-30.84c-1.85-3.18-3.45-5.87-3.45-9.65 0-7.98 6.14-13.1 6.22-13.1.34-.25.5-.67.6-1 0-.43-.1-.85-.35-1.2-.17-.07-10-12-12.18-15.1-.34-.34-.68-.6-1.18-.6-.42 0-.84.17-1.18.5-3.78 4.04-8.23 6.23-12.6 6.23-4.8 0-8.57-2.1-12.26-6.9-.6-.75-1.77-.75-2.36 0-3.7 4.8-7.47 6.9-12.26 6.9-4.37 0-8.82-2.2-12.6-6.22-.34-.34-.76-.5-1.18-.5-.5 0-.84.25-1.17.58-2.18 3.1-12.1 15.04-12.17 15.12-.25.34-.34.76-.34 1.18.08.34.24.76.58 1 .08 0 6.22 5.13 6.22 13.1 0 3.8-1.6 6.48-3.45 9.67-2.1 3.62-4.45 7.74-4.45 13.8 0 10.07 8.23 17.54 22 19.98 10.34 1.85 19 8.48 19.08 8.48.25.26.58.34.92.34.34 0 .67-.08.92-.34.1 0 8.74-6.63 19.07-8.48 13.77-2.44 22-9.9 22-20 0-6.04-2.35-10.16-4.45-13.77z" stroke="#000" stroke-opacity="0" fill="#fff"/><path d="M1280 1135.42l59.98 8.62v5.1c0 7.53-26.88 13.63-60 13.63-33.1 0-59.98-6.1-59.98-13.64v-5.53z" fill="#8c3123"/><path d="M1280.02 1172.13c25.03 0 46.48-3.54 55.42-8.5l2.98-4.78 1.2-4.4v5.45l-19.67 81c0 5.08-17.88 9.1-39.93 9.1s-39.93-4.02-39.93-9.1l-19.68-81v-5.35l4.53 9.27c9.06 4.87 30.27 8.3 55.07 8.3z" fill="#8c3123"/><path d="M1280 1130c33.1 0 60 6.12 60 13.62 0 7.5-26.9 13.57-60 13.57s-60-6.02-60-13.58c0-7.56 26.9-13.62 60-13.62z" fill="#e05243"/><path d="M1280 1166.6c30.87 0 56.27-5.2 59.6-12.06l-19.67 81c0 5.05-17.88 9.1-39.94 9.1s-39.94-4.05-39.94-9.1l-19.68-81c3.34 6.85 28.74 12.07 59.6 12.07z" fill="#e05243"/><path d="M1265.88 1174.38h25.98v24.96h-25.98v-24.96zM1258.02 1208.17c7.07 0 12.8 5.5 12.8 12.3 0 6.8-5.73 12.3-12.8 12.3s-12.8-5.5-12.8-12.3c0-6.8 5.73-12.3 12.8-12.3zM1311.87 1232.2h-25.65l12.82-22.94 12.83 22.94z" fill="#fff"/><use xlink:href="#k" transform="matrix(1,0,0,1,1220,1250) translate(13.792317708333343 21.52777777777778)"/><path d="M935.2 763.6a8 8 0 0 1 9.6 0l70.4 52.8a4.5 4.5 0 0 1 0 7.2l-70.4 52.8a8 8 0 0 1-9.6 0l-70.4-52.8a4.5 4.5 0 0 1 0-7.2z" stroke="#000" stroke-width="2" fill="#fff"/><use xlink:href="#l" transform="matrix(1,0,0,1,865,765) translate(33.96224826388888 62.77777777777778)"/><path d="M1150 821.48h-111.37v-2.96H1150zm141.45 0h-111.38v-2.96h111.38z" stroke="#3a414a" stroke-width=".05" fill="#3a414a"/><path d="M1037.13 824.63l-14.27-4.63 14.27-4.63z" fill="#3a414a"/><path d="M1038.6 826.66l-20.5-6.66 20.5-6.66zm-10.96-6.66l8 2.6v-5.2z" stroke="#3a414a" stroke-width=".05" fill="#3a414a"/><path d="M1307.22 820l-14.27 4.63v-9.26z" fill="#3a414a"/><path d="M1312 820l-20.52 6.66v-13.32zm-17.57 2.6l8-2.6-8-2.6z" stroke="#3a414a" stroke-width=".05" fill="#3a414a"/><use xlink:href="#m" transform="matrix(1,0,0,1,1150.006160089009,806.5559895833334) translate(0 21.52777777777778)"/><path d="M941.48 1119.38h-2.96v-96.43h2.96zm0-123.32h-2.96v-96.43h2.96z" stroke="#3a414a" stroke-width=".05" fill="#3a414a"/><path d="M944.63 898.13h-9.26l4.63-14.27z" fill="#3a414a"/><path d="M946.66 899.6h-13.32l6.66-20.5zm-9.26-2.95h5.2l-2.6-8.02z" stroke="#3a414a" stroke-width=".05" fill="#3a414a"/><path d="M940 1135.15l-4.63-14.27h9.26z" fill="#3a414a"/><path d="M940 1139.92l-6.66-20.52h13.32zm-2.6-17.57l2.6 8.02 2.6-8z" stroke="#3a414a" stroke-width=".05" fill="#3a414a"/><use xlink:href="#n" transform="matrix(1,0,0,1,920.9678819444445,996.0589738935627) translate(0 21.52777777777778)"/><path d="M740.62 820h100.76" stroke="#3a414a" stroke-width="3" stroke-linejoin="round" fill="none"/><path d="M724.86 820l14.26-4.63v9.26zM857.14 820l-14.26 4.63v-9.26z" stroke="#3a414a" stroke-width="3" fill="#3a414a"/><path d="M1020.62 1200h188.92" stroke="#3a414a" stroke-width="3" stroke-linejoin="round" fill="none"/><path d="M1004.86 1200l14.26-4.63v9.27zM1225.3 1200l-14.26 4.63v-9.27z" stroke="#3a414a" stroke-width="3" fill="#3a414a"/><path d="M1733.47 1135.97H1614.5V957.22" stroke="#3a414a" stroke-width="3" fill="none"/><path d="M1749.24 1135.97l-14.27 4.63v-9.27zM1614.5 941.45l4.62 14.27h-9.27z" stroke="#3a414a" stroke-width="3" fill="#3a414a"/><path d="M1614.5 564.52v121.4" stroke="#3a414a" stroke-width="3" stroke-linejoin="round" fill="none"/><path d="M1615.96 564.56H1613v-1.6l1.5.06 1.46-.08z" stroke="#3a414a" stroke-width=".05" fill="#3a414a"/><path d="M1614.5 700.4l-7.5-13h15z" stroke="#3a414a" stroke-width="3" fill="#3a414a"/><path d="M1735.97 1197.93a6 6 0 0 1 6-6h139.53a6 6 0 0 1 6 6v24.9a6 6 0 0 1-6 6h-139.53a6 6 0 0 1-6-6z" fill="none"/><use xlink:href="#o" transform="matrix(1,0,0,1,1740.9751487883,1196.9324667719297) translate(0.24262152777777146 21.58376736111111)"/><use xlink:href="#p" transform="matrix(1,0,0,1,1740.9751487883,1196.9324667719297) translate(111.18012152777777 21.58376736111111)"/><path d="M1358.74 516.04h191.28" stroke="#3a414a" stroke-width="3" stroke-linejoin="round" fill="none"/><path d="M1358.78 517.52h-1.54v-2.95h1.54z" stroke="#3a414a" stroke-width=".05" fill="#3a414a"/><path d="M1564.5 516.04l-12.98 7.5v-15z" stroke="#3a414a" stroke-width="3" fill="#3a414a"/><path d="M200 760h94v120h-94z" fill="url(#q)"/><use xlink:href="#r" transform="matrix(1,0,0,1,170,889) translate(47.9912109375 25.1875)"/><path d="M312.36 821.48H295.5v-2.96h16.86zm270.15 0h-77.1v-2.96h77.1z" stroke="#3a414a" stroke-width=".05" fill="#3a414a"/><path d="M295.54 821.48H294v-2.96h1.54z" fill="#3a414a"/><path stroke="#3a414a" stroke-width=".05" fill="#3a414a"/><path d="M597 820l-13 7.5v-15z" fill="#3a414a"/><path d="M599.95 820l-17.42 10.05v-20.1zm-14.47 4.95l8.57-4.95-8.56-4.95z" stroke="#3a414a" stroke-width=".05" fill="#3a414a"/><g><use xlink:href="#s" transform="matrix(1,0,0,1,312.3608700619536,806.5559895833335) translate(0 21.52777777777778)"/></g><defs><path d="M52 0l541-1490h220L1361 0h-200l-149-416H398L254 0H52zm404-582h497c-103-290-145-390-251-756-108 377-145 460-246 756" id="t"/><path d="M158 0v-1118h175l1 205c55-151 181-225 313-225 147 0 245 90 285 228 53-141 190-228 352-228 194 0 352 125 352 384V0h-181v-749c0-161-105-225-225-225-151 0-243 103-243 244V0H807v-767c0-124-93-207-219-207-131 0-250 92-250 270V0H158" id="u"/><path d="M471 26C259 26 90-98 90-318c0-256 228-303 435-329 202-27 287-16 287-108 0-139-79-219-234-219-161 0-248 86-283 164l-173-57c86-203 278-265 451-265 150 0 419 46 419 395V0H815v-152h-12C765-73 660 26 471 26zm31-159c199 0 310-134 310-271v-155c-30 35-226 55-295 64-131 17-246 59-246 186 0 116 97 176 231 176" id="v"/><path d="M126 0v-134l627-806v-11H146v-167h839v143L376-178v11h629V0H126" id="w"/><path d="M613 24c-304 0-509-231-509-576 0-350 205-580 509-580 305 0 511 230 511 580 0 345-206 576-511 576zm0-161c226 0 329-195 329-415 0-222-103-419-329-419-223 0-326 196-326 419 0 220 103 415 326 415" id="x"/><path d="M338-670V0H158v-1118h173l1 207c72-158 192-221 342-221 226 0 378 139 378 422V0H872v-695c0-172-96-275-252-275-161 0-282 109-282 300" id="y"/><g id="a"><use transform="matrix(0.0126953125,0,0,0.0126953125,0,0)" xlink:href="#t"/><use transform="matrix(0.0126953125,0,0,0.0126953125,17.9384765625,0)" xlink:href="#u"/><use transform="matrix(0.0126953125,0,0,0.0126953125,40.7138671875,0)" xlink:href="#v"/><use transform="matrix(0.0126953125,0,0,0.0126953125,55.3134765625,0)" xlink:href="#w"/><use transform="matrix(0.0126953125,0,0,0.0126953125,69.291015625,0)" xlink:href="#x"/><use transform="matrix(0.0126953125,0,0,0.0126953125,84.880859375,0)" xlink:href="#y"/></g><path d="M783 20c-382 0-661-292-661-764 0-473 279-766 661-766 302 0 548 182 601 489h-190c-42-204-217-313-411-313-268 0-476 208-476 590 0 381 209 588 476 588 195 0 369-110 411-313h190c-52 303-296 489-601 489" id="z"/><path d="M338-1490V0H158v-1490h180" id="A"/><path d="M537 14c-226 0-379-139-379-422v-710h180v695c0 172 97 275 253 275 160 0 281-109 281-300v-670h181V0H879v-209C806-46 684 14 537 14" id="B"/><path d="M577 24c-279 0-473-224-473-580 0-354 195-576 474-576 218 0 287 134 324 193h14v-551h180V0H922v-173h-20C865-111 790 24 577 24zm27-161c203 0 314-172 314-421 0-247-108-413-314-413-212 0-317 181-317 413 0 235 108 421 317 421" id="C"/><g id="b"><use transform="matrix(0.0126953125,0,0,0.0126953125,0,0)" xlink:href="#z"/><use transform="matrix(0.0126953125,0,0,0.0126953125,18.9921875,0)" xlink:href="#A"/><use transform="matrix(0.0126953125,0,0,0.0126953125,25.2890625,0)" xlink:href="#x"/><use transform="matrix(0.0126953125,0,0,0.0126953125,40.87890625,0)" xlink:href="#B"/><use transform="matrix(0.0126953125,0,0,0.0126953125,56.2529296875,0)" xlink:href="#C"/></g><path d="M763 24c-353 0-583-224-583-531v-983h190v968c0 214 149 370 393 370 243 0 391-156 391-370v-968h190v983c0 307-230 531-581 531" id="D"/><path d="M657 26c-323 0-524-166-541-416h195c15 169 171 246 346 246 202 0 356-106 356-265 5-203-294-238-475-293-239-73-380-191-380-389 0-252 224-419 512-419 294 0 499 171 508 396H992c-17-145-151-228-328-228-193 0-321 102-321 242 0 156 175 211 284 241l149 41c160 44 422 134 422 412 0 244-197 432-541 432" id="E"/><g id="c"><use transform="matrix(0.010850694444444444,0,0,0.010850694444444444,0,0)" xlink:href="#D"/><use transform="matrix(0.010850694444444444,0,0,0.010850694444444444,16.536458333333332,0)" xlink:href="#E"/></g><path d="M600 0L52-1490h200c166 485 304 806 458 1336 156-533 285-846 449-1336h202L819 0H600" id="F"/><path d="M158 0v-1118h180V0H158zm91-1301c-68 0-125-53-125-119s57-119 125-119c69 0 126 53 126 119s-57 119-126 119" id="G"/><path d="M158 0v-1118h174v172h12c41-113 157-188 290-188 26 0 70 2 91 3v181c-11-2-60-10-108-10-161 0-279 109-279 260V0H158" id="H"/><path d="M611 442c-248 0-391-105-460-228l146-94c47 65 117 165 314 165 178 0 307-82 307-266v-224h-17C863-141 792-18 576-18c-268 0-472-195-472-546 0-346 197-568 476-568 216 0 288 133 326 193h17v-179h175V29c0 289-215 413-487 413zm-5-620c203 0 314-146 314-390 0-237-108-403-314-403-213 0-319 180-319 403 0 230 109 390 319 390" id="I"/><g id="d"><use transform="matrix(0.010850694444444444,0,0,0.010850694444444444,0,0)" xlink:href="#F"/><use transform="matrix(0.010850694444444444,0,0,0.010850694444444444,15.33203125,0)" xlink:href="#G"/><use transform="matrix(0.010850694444444444,0,0,0.010850694444444444,20.713975694444443,0)" xlink:href="#H"/><use transform="matrix(0.010850694444444444,0,0,0.010850694444444444,28.7109375,0)" xlink:href="#I"/><use transform="matrix(0.010850694444444444,0,0,0.010850694444444444,42.33940972222222,0)" xlink:href="#G"/><use transform="matrix(0.010850694444444444,0,0,0.010850694444444444,47.721354166666664,0)" xlink:href="#y"/><use transform="matrix(0.010850694444444444,0,0,0.010850694444444444,60.85069444444444,0)" xlink:href="#G"/><use transform="matrix(0.010850694444444444,0,0,0.010850694444444444,66.23263888888889,0)" xlink:href="#v"/></g><path d="M180 0v-1490h908v168H370v486h669v168H370v500h727V0H180" id="J"/><path d="M154 0v-137l495-537c165-179 249-281 249-418 0-156-121-253-280-253-170 0-278 110-278 278H158c0-264 200-443 465-443 266 0 455 183 455 416 0 161-73 288-336 568L416-179v12h687V0H154" id="K"/><g id="e"><use transform="matrix(0.010850694444444444,0,0,0.010850694444444444,0,0)" xlink:href="#J"/><use transform="matrix(0.010850694444444444,0,0,0.010850694444444444,13.35720486111111,0)" xlink:href="#z"/><use transform="matrix(0.010850694444444444,0,0,0.010850694444444444,29.58984375,0)" xlink:href="#K"/></g><path d="M180 0v-1490h901v168H370v510h643v168H370V0H180" id="L"/><path d="M598-1118v154H368v674c0 100 37 144 132 144 23 0 62-6 92-12L629-6c-37 13-88 20-134 20-193 0-307-107-307-290v-688H20v-154h168v-266h180v266h230" id="M"/><g id="f"><use transform="matrix(0.010850694444444444,0,0,0.010850694444444444,0,0)" xlink:href="#z"/><use transform="matrix(0.010850694444444444,0,0,0.010850694444444444,16.23263888888889,0)" xlink:href="#A"/><use transform="matrix(0.010850694444444444,0,0,0.010850694444444444,21.614583333333336,0)" xlink:href="#x"/><use transform="matrix(0.010850694444444444,0,0,0.010850694444444444,34.939236111111114,0)" xlink:href="#B"/><use transform="matrix(0.010850694444444444,0,0,0.010850694444444444,48.07942708333333,0)" xlink:href="#C"/><use transform="matrix(0.010850694444444444,0,0,0.010850694444444444,61.68619791666667,0)" xlink:href="#L"/><use transform="matrix(0.010850694444444444,0,0,0.010850694444444444,74.15364583333334,0)" xlink:href="#H"/><use transform="matrix(0.010850694444444444,0,0,0.010850694444444444,82.1506076388889,0)" xlink:href="#x"/><use transform="matrix(0.010850694444444444,0,0,0.010850694444444444,95.47526041666666,0)" xlink:href="#y"/><use transform="matrix(0.010850694444444444,0,0,0.010850694444444444,108.60460069444444,0)" xlink:href="#M"/></g><path d="M481 0L54-1118h197c107 314 236 620 325 951 87-331 217-637 324-951h197L670 0H481" id="N"/><path d="M628 24c-324 0-524-230-524-574 0-343 198-582 503-582 237 0 487 146 487 559v75H286c9 234 145 362 343 362 132 0 231-58 273-172l174 48C1024-91 857 24 628 24zM287-650h624c-17-190-120-322-304-322-192 0-309 151-320 322" id="O"/><path d="M180 0v-1490h528c311 0 458 177 458 395 0 191-114 278-244 313v14c139 9 302 137 302 371 0 225-148 397-499 397H180zm190-168h350c232 0 321-102 321-231 0-149-120-277-311-277H370v508zm0-668h328c160 0 286-101 286-255 0-129-87-231-280-231H370v486" id="P"/><g id="g"><use transform="matrix(0.010850694444444444,0,0,0.010850694444444444,0,0)" xlink:href="#J"/><use transform="matrix(0.010850694444444444,0,0,0.010850694444444444,13.35720486111111,0)" xlink:href="#N"/><use transform="matrix(0.010850694444444444,0,0,0.010850694444444444,25.41232638888889,0)" xlink:href="#O"/><use transform="matrix(0.010850694444444444,0,0,0.010850694444444444,38.36805555555555,0)" xlink:href="#y"/><use transform="matrix(0.010850694444444444,0,0,0.010850694444444444,51.49739583333333,0)" xlink:href="#M"/><use transform="matrix(0.010850694444444444,0,0,0.010850694444444444,58.76736111111111,0)" xlink:href="#P"/><use transform="matrix(0.010850694444444444,0,0,0.010850694444444444,73.30729166666666,0)" xlink:href="#H"/><use transform="matrix(0.010850694444444444,0,0,0.010850694444444444,82.02039930555556,0)" xlink:href="#G"/><use transform="matrix(0.010850694444444444,0,0,0.010850694444444444,87.40234375,0)" xlink:href="#C"/><use transform="matrix(0.010850694444444444,0,0,0.010850694444444444,101.00911458333333,0)" xlink:href="#I"/><use transform="matrix(0.010850694444444444,0,0,0.010850694444444444,114.63758680555556,0)" xlink:href="#O"/></g><path d="M545 20c-263 0-445-160-445-446v-80h190v80c0 182 102 279 255 279 152 0 254-97 254-279v-1064h190v1064c0 286-181 446-444 446" id="Q"/><path d="M677 24c-213 0-288-135-325-197h-20V0H158v-1490h180v551h14c37-59 106-193 324-193 279 0 474 222 474 576 0 356-194 580-473 580zm-27-161c209 0 317-186 317-421 0-232-105-413-317-413-206 0-314 166-314 413 0 249 111 421 314 421" id="R"/><g id="h"><use transform="matrix(0.010850694444444444,0,0,0.010850694444444444,0,0)" xlink:href="#z"/><use transform="matrix(0.010850694444444444,0,0,0.010850694444444444,16.23263888888889,0)" xlink:href="#H"/><use transform="matrix(0.010850694444444444,0,0,0.010850694444444444,24.229600694444443,0)" xlink:href="#x"/><use transform="matrix(0.010850694444444444,0,0,0.010850694444444444,37.55425347222222,0)" xlink:href="#y"/><use transform="matrix(0.010850694444444444,0,0,0.010850694444444444,50.68359375,0)" xlink:href="#Q"/><use transform="matrix(0.010850694444444444,0,0,0.010850694444444444,63.36805555555555,0)" xlink:href="#x"/><use transform="matrix(0.010850694444444444,0,0,0.010850694444444444,76.69270833333333,0)" xlink:href="#R"/></g><linearGradient gradientUnits="userSpaceOnUse" id="i" x1="1805.18" y1="1134.47" x2="1846.09" y2="1151.56"><stop offset="0%" stop-color="#249361"/><stop offset="100%" stop-color="#3ecf8e"/></linearGradient><linearGradient gradientUnits="userSpaceOnUse" id="j" x1="1787.04" y1="1109.73" x2="1805.7" y2="1144.72"><stop offset="0%" stop-opacity=".2"/><stop offset="100%" stop-opacity="0"/></linearGradient><path d="M626 20c-262 0-458-168-468-396h184c12 133 134 229 284 229 180 0 311-137 311-326 0-192-136-335-323-335-92 0-196 33-255 78l-178-22 88-738h784v167H429l-51 435h8c61-51 160-87 263-87 273 0 474 211 474 499 0 286-210 496-497 496" id="S"/><path d="M646 20c-332 0-524-278-524-764 0-483 194-766 524-766s524 283 524 766c0 485-191 764-524 764zm0-166c218 0 341-220 341-598 0-380-123-601-341-601s-341 222-341 601c0 378 123 598 341 598" id="T"/><path d="M635 20c-292 0-500-160-510-396h192c11 142 145 229 315 229 187 0 323-105 323-260 0-161-125-274-346-274H488v-165h121c174 0 294-100 294-254 0-148-104-245-266-245-152 0-291 85-297 230H157c8-234 222-395 484-395 278 0 448 188 448 400 0 168-95 291-247 336v12c190 31 301 169 301 357 0 244-216 425-508 425" id="U"/><path d="M295 13c-75 0-135-60-135-135s60-135 135-135 135 60 135 135S370 13 295 13" id="V"/><path d="M338-670V0H158v-1490h180v566c73-149 190-208 336-208 226 0 379 139 379 422V0H872v-695c0-172-96-275-252-275-161 0-282 109-282 300" id="W"/><g id="k"><use transform="matrix(0.010850694444444444,0,0,0.010850694444444444,0,0)" xlink:href="#S"/><use transform="matrix(0.010850694444444444,0,0,0.010850694444444444,13.509114583333332,0)" xlink:href="#T"/><use transform="matrix(0.010850694444444444,0,0,0.010850694444444444,27.528211805555554,0)" xlink:href="#U"/><use transform="matrix(0.010850694444444444,0,0,0.010850694444444444,40.75520833333333,0)" xlink:href="#V"/><use transform="matrix(0.010850694444444444,0,0,0.010850694444444444,47.15711805555556,0)" xlink:href="#W"/><use transform="matrix(0.010850694444444444,0,0,0.010850694444444444,60.29730902777778,0)" xlink:href="#M"/><use transform="matrix(0.010850694444444444,0,0,0.010850694444444444,67.56727430555554,0)" xlink:href="#u"/><use transform="matrix(0.010850694444444444,0,0,0.010850694444444444,87.03342013888887,0)" xlink:href="#A"/></g><g id="l"><use transform="matrix(0.010850694444444444,0,0,0.010850694444444444,0,0)" xlink:href="#L"/><use transform="matrix(0.010850694444444444,0,0,0.010850694444444444,12.57595486111111,0)" xlink:href="#v"/><use transform="matrix(0.010850694444444444,0,0,0.010850694444444444,25.05425347222222,0)" xlink:href="#G"/><use transform="matrix(0.010850694444444444,0,0,0.010850694444444444,30.436197916666664,0)" xlink:href="#A"/><use transform="matrix(0.010850694444444444,0,0,0.010850694444444444,35.81814236111111,0)" xlink:href="#x"/><use transform="matrix(0.010850694444444444,0,0,0.010850694444444444,48.70876736111111,0)" xlink:href="#N"/><use transform="matrix(0.010850694444444444,0,0,0.010850694444444444,60.763888888888886,0)" xlink:href="#O"/><use transform="matrix(0.010850694444444444,0,0,0.010850694444444444,73.71961805555556,0)" xlink:href="#H"/></g><path fill="#333" d="M180 0v-1490h224l606 953c40 63 108 177 176 312-27-437-7-821-13-1265h190V0h-226C860-448 622-778 356-1262c27 476 11 792 15 1262H180" id="X"/><path fill="#333" d="M613 24c-304 0-509-231-509-576 0-350 205-580 509-580 305 0 511 230 511 580 0 345-206 576-511 576zm0-161c226 0 329-195 329-415 0-222-103-419-329-419-223 0-326 196-326 419 0 220 103 415 326 415" id="Y"/><g id="m"><use transform="matrix(0.010850694444444444,0,0,0.010850694444444444,0,0)" xlink:href="#X"/><use transform="matrix(0.010850694444444444,0,0,0.010850694444444444,16.74262152777778,0)" xlink:href="#Y"/></g><path fill="#333" d="M600 0v-610L52-1490h220l295 481c50 82 90 150 130 243 40-96 80-164 128-243l294-481h219L790-610V0H600" id="Z"/><path fill="#333" d="M628 24c-324 0-524-230-524-574 0-343 198-582 503-582 237 0 487 146 487 559v75H286c9 234 145 362 343 362 132 0 231-58 273-172l174 48C1024-91 857 24 628 24zM287-650h624c-17-190-120-322-304-322-192 0-309 151-320 322" id="aa"/><path fill="#333" d="M538 24C308 24 148-78 108-271l171-41c32 123 123 178 257 178 156 0 256-77 256-169 0-77-54-128-164-154l-186-44c-203-48-300-148-300-305 0-192 176-326 414-326 230 0 351 112 402 269l-163 42c-31-80-94-158-238-158-133 0-233 69-233 162 0 83 57 129 188 160l169 40c203 48 298 149 298 302 0 196-179 339-441 339" id="ab"/><g id="n"><use transform="matrix(0.010850694444444444,0,0,0.010850694444444444,0,0)" xlink:href="#Z"/><use transform="matrix(0.010850694444444444,0,0,0.010850694444444444,13.37890625,0)" xlink:href="#aa"/><use transform="matrix(0.010850694444444444,0,0,0.010850694444444444,26.334635416666664,0)" xlink:href="#ab"/></g><path d="M158 418v-1536h174v179h20c37-59 106-193 324-193 279 0 474 222 474 576 0 356-194 580-473 580-213 0-288-135-325-197h-14v591H158zm492-555c209 0 317-186 317-421 0-232-105-413-317-413-206 0-314 166-314 413 0 249 111 421 314 421" id="ac"/><path d="M538 24C308 24 148-78 108-271l171-41c32 123 123 178 257 178 156 0 256-77 256-169 0-77-54-128-164-154l-186-44c-203-48-300-148-300-305 0-192 176-326 414-326 230 0 351 112 402 269l-163 42c-31-80-94-158-238-158-133 0-233 69-233 162 0 83 57 129 188 160l169 40c203 48 298 149 298 302 0 196-179 339-441 339" id="ad"/><g id="o"><use transform="matrix(0.010850694444444444,0,0,0.010850694444444444,0,0)" xlink:href="#E"/><use transform="matrix(0.010850694444444444,0,0,0.010850694444444444,14.2578125,0)" xlink:href="#B"/><use transform="matrix(0.010850694444444444,0,0,0.010850694444444444,27.39800347222222,0)" xlink:href="#ac"/><use transform="matrix(0.010850694444444444,0,0,0.010850694444444444,41.22178819444444,0)" xlink:href="#v"/><use transform="matrix(0.010850694444444444,0,0,0.010850694444444444,53.70008680555556,0)" xlink:href="#R"/><use transform="matrix(0.010850694444444444,0,0,0.010850694444444444,67.52387152777777,0)" xlink:href="#v"/><use transform="matrix(0.010850694444444444,0,0,0.010850694444444444,80.00217013888889,0)" xlink:href="#ad"/><use transform="matrix(0.010850694444444444,0,0,0.010850694444444444,91.73177083333333,0)" xlink:href="#O"/></g><path d="M645 0H180v-1490h484c435 0 692 280 692 742 0 466-257 748-711 748zM370-168h263c363 0 539-218 539-580 0-358-176-574-521-574H370v1154" id="ae"/><g id="p"><use transform="matrix(0.010850694444444444,0,0,0.010850694444444444,0,0)" xlink:href="#ae"/><use transform="matrix(0.010850694444444444,0,0,0.010850694444444444,16.03732638888889,0)" xlink:href="#P"/></g><image width="10" height="10" id="af" xlink:href="https://cdn-cashy-static-assets.lucidchart.com/libraries/OracleCloudInfrastructure/preview-pngs/User.png" preserveAspectRatio="none"/><pattern id="q" patternUnits="userSpaceOnUse" x="200" y="760" width="94" height="120"><use xlink:href="#af" transform="translate(0, 0) scale(9.4,12)"/></pattern><g id="r"><use transform="matrix(0.0126953125,0,0,0.0126953125,0,0)" xlink:href="#D"/><use transform="matrix(0.0126953125,0,0,0.0126953125,19.34765625,0)" xlink:href="#ad"/><use transform="matrix(0.0126953125,0,0,0.0126953125,33.0712890625,0)" xlink:href="#O"/><use transform="matrix(0.0126953125,0,0,0.0126953125,48.2294921875,0)" xlink:href="#H"/></g><path fill="#333" d="M471 26C259 26 90-98 90-318c0-256 228-303 435-329 202-27 287-16 287-108 0-139-79-219-234-219-161 0-248 86-283 164l-173-57c86-203 278-265 451-265 150 0 419 46 419 395V0H815v-152h-12C765-73 660 26 471 26zm31-159c199 0 310-134 310-271v-155c-30 35-226 55-295 64-131 17-246 59-246 186 0 116 97 176 231 176" id="ag"/><path fill="#333" d="M338-670V0H158v-1118h173l1 207c72-158 192-221 342-221 226 0 378 139 378 422V0H872v-695c0-172-96-275-252-275-161 0-282 109-282 300" id="ah"/><path fill="#333" d="M338-1490V0H158v-1490h180" id="ai"/><path fill="#333" d="M140 405l46-156c120 36 205 19 263-150l32-93L54-1118h197c107 313 237 620 324 950 87-331 219-637 326-950h196L606 167c-68 178-176 259-334 259-64 0-113-12-132-21" id="aj"/><path fill="#333" d="M598-1118v154H368v674c0 100 37 144 132 144 23 0 62-6 92-12L629-6c-37 13-88 20-134 20-193 0-307-107-307-290v-688H20v-154h168v-266h180v266h230" id="ak"/><path fill="#333" d="M158 0v-1118h180V0H158zm91-1301c-68 0-125-53-125-119s57-119 125-119c69 0 126 53 126 119s-57 119-126 119" id="al"/><path fill="#333" d="M613 24c-304 0-509-231-509-576 0-350 205-580 509-580 216 0 392 114 453 309l-173 49c-33-115-133-197-280-197-223 0-326 196-326 419 0 220 103 415 326 415 150 0 252-85 285-206l172 49C1010-95 832 24 613 24" id="am"/><path fill="#333" d="M158 0v-1118h174v172h12c41-113 157-188 290-188 26 0 70 2 91 3v181c-11-2-60-10-108-10-161 0-279 109-279 260V0H158" id="an"/><path fill="#333" d="M577 24c-279 0-473-224-473-580 0-354 195-576 474-576 218 0 287 134 324 193h14v-551h180V0H922v-173h-20C865-111 790 24 577 24zm27-161c203 0 314-172 314-421 0-247-108-413-314-413-212 0-317 181-317 413 0 235 108 421 317 421" id="ao"/><path fill="#333" d="M295 13c-75 0-135-60-135-135s60-135 135-135 135 60 135 135S370 13 295 13" id="ap"/><path fill="#333" d="M158 0v-1118h175l1 205c55-151 181-225 313-225 147 0 245 90 285 228 53-141 190-228 352-228 194 0 352 125 352 384V0h-181v-749c0-161-105-225-225-225-151 0-243 103-243 244V0H807v-767c0-124-93-207-219-207-131 0-250 92-250 270V0H158" id="aq"/><g id="s"><use transform="matrix(0.010850694444444444,0,0,0.010850694444444444,0,0)" xlink:href="#ag"/><use transform="matrix(0.010850694444444444,0,0,0.010850694444444444,12.47829861111111,0)" xlink:href="#ah"/><use transform="matrix(0.010850694444444444,0,0,0.010850694444444444,25.60763888888889,0)" xlink:href="#ag"/><use transform="matrix(0.010850694444444444,0,0,0.010850694444444444,38.0859375,0)" xlink:href="#ai"/><use transform="matrix(0.010850694444444444,0,0,0.010850694444444444,43.576388888888886,0)" xlink:href="#aj"/><use transform="matrix(0.010850694444444444,0,0,0.010850694444444444,56.39105902777778,0)" xlink:href="#ak"/><use transform="matrix(0.010850694444444444,0,0,0.010850694444444444,63.66102430555555,0)" xlink:href="#al"/><use transform="matrix(0.010850694444444444,0,0,0.010850694444444444,69.04296875,0)" xlink:href="#am"/><use transform="matrix(0.010850694444444444,0,0,0.010850694444444444,81.73828125,0)" xlink:href="#ah"/><use transform="matrix(0.010850694444444444,0,0,0.010850694444444444,94.86762152777777,0)" xlink:href="#aa"/><use transform="matrix(0.010850694444444444,0,0,0.010850694444444444,107.82335069444444,0)" xlink:href="#an"/><use transform="matrix(0.010850694444444444,0,0,0.010850694444444444,115.8203125,0)" xlink:href="#ao"/><use transform="matrix(0.010850694444444444,0,0,0.010850694444444444,129.42708333333334,0)" xlink:href="#ab"/><use transform="matrix(0.010850694444444444,0,0,0.010850694444444444,141.1566840277778,0)" xlink:href="#ap"/><use transform="matrix(0.010850694444444444,0,0,0.010850694444444444,147.55859375000003,0)" xlink:href="#am"/><use transform="matrix(0.010850694444444444,0,0,0.010850694444444444,160.25390625000003,0)" xlink:href="#Y"/><use transform="matrix(0.010850694444444444,0,0,0.010850694444444444,173.5785590277778,0)" xlink:href="#aq"/></g></defs></g></svg>